<svg xmlns="http://www.w3.org/2000/svg" width="29.336" height="36.772" viewBox="0 0 29.336 36.772">
  <g id="borrar" transform="translate(33 -1043)">
    <path id="Trazado_92" data-name="Trazado 92" d="M1.93,0H27.406a1.93,1.93,0,0,1,1.93,1.93V3.86a1.93,1.93,0,0,1-1.93,1.93H1.93A1.93,1.93,0,0,1,0,3.86V1.93A1.93,1.93,0,0,1,1.93,0Z" transform="translate(-33 1047.825)" fill="#FFFFFF"/>
    <path id="Sustracción_13" data-name="Sustracción 13" d="M21.23,24.613H2.9A2.943,2.943,0,0,1,.848,23.8,2.693,2.693,0,0,1,0,21.842V0H24.125V21.842a2.693,2.693,0,0,1-.848,1.959A2.943,2.943,0,0,1,21.23,24.613ZM17.136,4.452a2.357,2.357,0,0,0-2.524,2.137v11.4a2.358,2.358,0,0,0,2.524,2.137,2.358,2.358,0,0,0,2.524-2.137V6.589A2.357,2.357,0,0,0,17.136,4.452Zm-10.229,0A2.357,2.357,0,0,0,4.383,6.589v11.4a2.358,2.358,0,0,0,2.524,2.137,2.358,2.358,0,0,0,2.524-2.137V6.589A2.357,2.357,0,0,0,6.907,4.452Z" transform="translate(-30.465 1055.159)" fill="#FFFFFF"/>
    <path id="Trazado_93" data-name="Trazado 93" d="M1.737,0H11a1.737,1.737,0,0,1,0,3.474H1.737A1.737,1.737,0,0,1,1.737,0Z" transform="translate(-24.701 1043)" fill="#FFFFFF"/>
  </g>
</svg>
