<svg xmlns="http://www.w3.org/2000/svg" width="179" height="136" viewBox="0 0 179 136">
  <path id="comunicados" d="M8,136a8.01,8.01,0,0,1-8-8V8A8.01,8.01,0,0,1,8,0H171a8.01,8.01,0,0,1,8,8V128a8.01,8.01,0,0,1-8,8ZM17,21v94a8.01,8.01,0,0,0,8,8H154a8.01,8.01,0,0,0,8-8V21a8.01,8.01,0,0,0-8-8H25A8.01,8.01,0,0,0,17,21Zm14.5,90a4.5,4.5,0,1,1,0-9h113a4.5,4.5,0,0,1,0,9Zm0-18a4.5,4.5,0,0,1,0-9h113a4.5,4.5,0,0,1,0,9Zm74-16a4.5,4.5,0,1,1,0-9h39a4.5,4.5,0,0,1,0,9ZM35,74a8.01,8.01,0,0,1-8-8V34a8.009,8.009,0,0,1,8-8H82a8.009,8.009,0,0,1,8,8V66a8.01,8.01,0,0,1-8,8ZM32.983,38.588V61.412a8.01,8.01,0,0,0,8,8H76.017a8.01,8.01,0,0,0,8-8V38.588a8.009,8.009,0,0,0-8-8H40.983A8.009,8.009,0,0,0,32.983,38.588ZM105.5,59a4.5,4.5,0,1,1,0-9h39a4.5,4.5,0,0,1,0,9Zm0-20a4.5,4.5,0,0,1,0-9h39a4.5,4.5,0,0,1,0,9Z" fill="#fff"/>
</svg>
