<svg xmlns="http://www.w3.org/2000/svg" width="77" height="52.999" viewBox="0 0 77 52.999">
  <path id="cursos" d="M5,53a5.005,5.005,0,0,1-5-5V45a5.006,5.006,0,0,1,5-5H68V8a3,3,0,0,0-3-3H13a3,3,0,0,0-3,3V40H5V5a5.006,5.006,0,0,1,5-5H68a5.006,5.006,0,0,1,5,5V40h-.919A5.006,5.006,0,0,1,77,45v3a5.005,5.005,0,0,1-5,5ZM4,46.5A2.5,2.5,0,0,0,6.5,49h64a2.5,2.5,0,0,0,0-5H6.5A2.5,2.5,0,0,0,4,46.5ZM33,47a3,3,0,0,1-3-3H49a3,3,0,0,1-3,3ZM16.5,35a2.5,2.5,0,1,1,0-5h46a2.5,2.5,0,1,1,0,5Zm0-9a2.5,2.5,0,1,1,0-5h46a2.5,2.5,0,1,1,0,5Zm0-10a2.5,2.5,0,1,1,0-5h46a2.5,2.5,0,1,1,0,5Z" fill="#fff"/>
</svg>
