<svg xmlns="http://www.w3.org/2000/svg" width="30" height="34" viewBox="0 0 30 34">
  <g id="curso" transform="translate(1814 791)">
    <path id="Sustracción_1" data-name="Sustracción 1" d="M26,34H4a4,4,0,0,1-4-4V4A4,4,0,0,1,4,0H26a4,4,0,0,1,4,4V30A4,4,0,0,1,26,34ZM5,4A2,2,0,0,0,3,6V28a2,2,0,0,0,2,2H25a2,2,0,0,0,2-2V6a2,2,0,0,0-2-2Z" transform="translate(-1814 -791)" fill="#fff"/>
    <path id="Sustracción_3" data-name="Sustracción 3" d="M4,8A4,4,0,1,1,8,4,4,4,0,0,1,4,8ZM4,2A2,2,0,1,0,6,4,2,2,0,0,0,4,2Z" transform="translate(-1810 -775)" fill="#fff"/>
    <path id="Sustracción_4" data-name="Sustracción 4" d="M5.5,10c-.091,0-.184,0-.276-.006a4,4,0,1,0-2.306-.578A4.953,4.953,0,0,1,0,5,5.274,5.274,0,0,1,5.5,0,5.274,5.274,0,0,1,11,5,5.274,5.274,0,0,1,5.5,10Z" transform="translate(-1812 -767)" fill="#fff"/>
    <path id="Sustracción_2" data-name="Sustracción 2" d="M14,12H1a1,1,0,0,1-1-1V1A1,1,0,0,1,1,0H14a1,1,0,0,1,1,1V11A1,1,0,0,1,14,12ZM2.875,2a1,1,0,0,0-1,1V9a1,1,0,0,0,1,1h9.25a1,1,0,0,0,1-1V3a1,1,0,0,0-1-1Z" transform="translate(-1803 -784)" fill="#fff"/>
  </g>
</svg>
