<svg xmlns="http://www.w3.org/2000/svg" width="33.775" height="36.39" viewBox="0 0 33.775 36.39">
  <g id="editar" transform="translate(-255 -145.71)">
    <path id="Sustracción_11" data-name="Sustracción 11" d="M26.3,33H4.7A4.647,4.647,0,0,1,0,28.416V4.584A4.647,4.647,0,0,1,4.7,0H20.739l-3.71,3.882H7.24a3.553,3.553,0,0,0-3.591,3.5V25.612A3.553,3.553,0,0,0,7.24,29.117H23.761a3.554,3.554,0,0,0,3.592-3.505V14.74L31,10.925V28.416A4.646,4.646,0,0,1,26.3,33Z" transform="translate(255 149.1)" fill="#146bb8"/>
    <path id="Trazado_88" data-name="Trazado 88" d="M22.872,9.26Zm-16.878,0S0,6.774,0,4.459,5.994,0,5.994,0V9.26h0Zm2.366,0V0H22.872V9.26H8.36ZM25.238,0H28.6a1.763,1.763,0,0,1,.8,1.148,9.266,9.266,0,0,1,.442,3.371,11.906,11.906,0,0,1-.349,3.593c-.4,1.029-.882,1.149-.882,1.149H25.238Z" transform="translate(261.65 167.535) rotate(-47)" fill="#146bb8"/>
  </g>
</svg>
