<svg xmlns="http://www.w3.org/2000/svg" xmlns:xlink="http://www.w3.org/1999/xlink" viewBox="0 0 340.75 318.45"><defs><style>.cls-1{fill:#d20001;}.cls-2{fill:#e5e7e6;}.cls-3{fill:#00266d;}.cls-4{fill:url(#Degradado_sin_nombre_9);}.cls-5{fill:url(#Degradado_sin_nombre_13);}.cls-6{fill:#fae10e;}.cls-7{fill:#27a2db;}.cls-8{fill:#64798a;}.cls-9{fill:#e1e6e9;}.cls-10{fill:#d5d6db;}.cls-11{fill:#2d93ba;}.cls-12{fill:#3a556a;}</style><linearGradient id="Degradado_sin_nombre_9" x1="94.74" y1="20.53" x2="92.8" y2="83.35" gradientUnits="userSpaceOnUse"><stop offset="0.37" stop-color="#5d81ba"/><stop offset="0.61" stop-color="#00266d"/></linearGradient><linearGradient id="Degradado_sin_nombre_13" x1="93.2" y1="23.41" x2="92.93" y2="51.06" gradientUnits="userSpaceOnUse"><stop offset="0.37" stop-color="#fff"/><stop offset="0.61" stop-color="#c7cfcc"/></linearGradient></defs><g id="Capa_2" data-name="Capa 2"><g id="Capa_1-2" data-name="Capa 1"><path class="cls-1" d="M317.78,113.8a156.83,156.83,0,0,1,2.52-16.15c.08-.35.15-.72.23-1.07C327,66,340.75,36.18,340.75,36.18l-37.5-30c-9.82,5-46.8,9.87-74.47,9.47-.8,0-1.58,0-2.38-.07C199.38,14.7,175.53,5.2,166.15,0c-6.52,2.58-40.29,16.18-67.9,16.18-22.5,0-62.5-10-62.5-10l-35,30S26.48,85,25.13,120c-1.13,29.13-15,45.33-21.65,62.65-4.9,12.78-5.83,26.18,5.27,45.8,12.5,22.1,38.93,36,68.38,47.85,1,.43,2.07.85,3.1,1.25,32.42,12.88,68,23.75,92.25,40.95C216.63,285,315.88,269,334.15,226.35,352.58,183.38,313.78,154.33,317.78,113.8Z"/><path class="cls-2" d="M340.75,36.18S326.65,66.7,320.3,97.65L80.23,277.5c-30.68-12.2-58.55-26.22-71.48-49.1-11.1-19.62-10.17-33-5.27-45.8l222.92-167c.8.05,1.58.07,2.38.07,27.67.4,64.65-4.45,74.47-9.47Z"/><path class="cls-3" d="M334.15,226.35C315.88,269,216.63,285,172.48,318.45c-24.3-17.2-59.83-28.07-92.25-40.95-1-.4-2.08-.82-3.1-1.25L320.53,96.58c-.08.35-.15.72-.23,1.07a156.83,156.83,0,0,0-2.52,16.15C313.78,154.33,352.58,183.38,334.15,226.35Z"/><path d="M59.09,167.56l1.49,2.07a6.84,6.84,0,0,1,1.54,5.5,8.27,8.27,0,0,1-3.6,5,7.72,7.72,0,0,1-5.58,1.83,6.68,6.68,0,0,1-4.58-3.15l-1.63-2.26-5.82-7.78,3.28-2.42,6.92,9.77a4.56,4.56,0,0,0,2.67,2.06,3.73,3.73,0,0,0,3-.87c2.09-1.54,2.33-3.4.7-5.58L50.07,162l3.34-2.45Z"/><path d="M77.51,158.43l3.65,4.72-3.53,2.59-14.1-5.87-.19.14,3.77,5.19,4,5.3-3,2.18L65,168l-8.2-10.87,3.5-2.58,14.11,5.87.21-.16-7.71-10.34,2.89-2.41Z"/><path d="M84.5,153.1l3.77,4.83L85,160.34l-3.24-4.76-8.19-10.81,3.33-2.45Z"/><path d="M93.46,132.91c2.13.36,4.06,1.73,5.79,4.08,2,2.76,2.9,5.36,2.62,7.83s-1.67,4.61-4.19,6.46c-.76.56-1.68,1.2-2.75,1.95s-2,1.37-2.81,1.87l-3.24-4.76-8.2-10.81,6.19-4.69A8.53,8.53,0,0,1,93.46,132.91Zm2.93,7.33c-1.4-1.9-2.72-3.05-4-3.46a4.14,4.14,0,0,0-3.86.85c-.86.62-1.74,1.33-2.64,2.12l5.73,8.11,1.83,2.34a33.34,33.34,0,0,0,2.93-1.89Q100.24,145.49,96.39,140.24Z"/><path d="M119.78,134.79l-3.34,2.45-1.88-1.75-1.47-1.15-3.1,2.17-2.63,2,.53,1.59,1.2,2.5L105.85,145l-6.16-19.44,3.89-2.86Zm-9.26-2.47-6.6-5.13-.21.16,2.63,8,2.11-1.48Z"/><path d="M123.39,110.92q3.19.56,5.79,4.08,3,4.14,2.62,7.83c-.27,2.46-1.67,4.62-4.18,6.46q-1.14.84-2.76,2c-1.08.75-2,1.37-2.81,1.88l-3.24-4.77-8.2-10.8,6.2-4.7A8.5,8.5,0,0,1,123.39,110.92Zm2.93,7.34c-1.39-1.9-2.72-3.06-4-3.46a4.15,4.15,0,0,0-3.87.84q-1.28.94-2.64,2.13l5.73,8.11,1.83,2.34c1.21-.72,2.19-1.35,2.93-1.89Q130.17,123.51,126.32,118.26Z"/><path d="M149.34,108.91l.39.12,1.58,2.6-9.77,7.18L138.3,114l-8.2-10.8L140,96l.39.12,1.55,2.62-3.81,2.62-2.79,2.08,2.68,3.8,2.72-1.92,2.48-1.94.38.1,1.57,2.6-2.81,2-2.47,1.85,1.2,1.69,1.8,2.29,2.75-2Z"/><path d="M155.19,87.57q3.19.56,5.79,4.08c2,2.76,2.9,5.37,2.62,7.83a9.29,9.29,0,0,1-4.19,6.46c-.76.56-1.68,1.21-2.75,2s-2,1.37-2.81,1.88L150.61,105l-8.2-10.8,6.19-4.7A8.53,8.53,0,0,1,155.19,87.57Zm2.93,7.34c-1.4-1.91-2.72-3.06-4-3.47a4.17,4.17,0,0,0-3.86.85c-.86.63-1.74,1.34-2.65,2.13l5.74,8.11,1.83,2.34c1.21-.72,2.19-1.35,2.93-1.89C160.69,101.09,160.69,98.41,158.12,94.91Z"/><path d="M176,81.68l1.49,2.08a6.81,6.81,0,0,1,1.54,5.49,8.32,8.32,0,0,1-3.6,5,7.76,7.76,0,0,1-5.58,1.82,6.62,6.62,0,0,1-4.58-3.15l-1.63-2.26-5.82-7.78,3.29-2.42L168,90.22a4.63,4.63,0,0,0,2.67,2.07,3.78,3.78,0,0,0,3-.88c2.09-1.54,2.33-3.4.7-5.58L167,76.14l3.34-2.45Z"/><path d="M184.55,64.4,186,67.56l-.18.32a7.5,7.5,0,0,0-2.18.37,7,7,0,0,0-2,1q-3.84,2.82-.13,7.87a8.62,8.62,0,0,0,4,3.37,4.26,4.26,0,0,0,3.94-.8,8.15,8.15,0,0,0,1.64-1.63,8.58,8.58,0,0,0,1.17-2l.42,0,1.77,3a11.24,11.24,0,0,1-3.25,3.68q-3.48,2.56-6.79,1.87c-2.22-.46-4.25-2-6.11-4.48s-2.71-5.06-2.46-7.43a8.8,8.8,0,0,1,3.94-6.17A10.9,10.9,0,0,1,184.55,64.4Z"/><path d="M209.75,68.71l-3.34,2.45-1.88-1.74-1.47-1.15L200,70.43l-2.63,2,.53,1.58,1.2,2.5-3.24,2.38L189.66,59.5l3.89-2.86Zm-9.26-2.47-6.6-5.13-.21.16,2.63,8,2.11-1.48Z"/><path d="M209.49,45.34l1.6,2.59-3,2-1,.71,5.81,8.17,3.77,4.82-3.29,2.42-3.24-4.77L203.87,53l-1,.71L200,56l-.42-.1-1.57-2.6,11-8.12Z"/><path d="M222.38,51.85l3.76,4.82-3.29,2.42-3.24-4.77-8.19-10.8,3.33-2.45Z"/><path d="M236.81,48.84l-3.92,2.88-16.2-12.08L220,37.19,221.92,39l10.64,8.3.22-.16L228.6,34.32l-1.22-2.52,3.24-2.38Z"/><path d="M255.42,35.17l-3.33,2.45-1.88-1.75-1.48-1.15-3.1,2.17-2.63,2,.53,1.58L244.74,43,241.5,45.4,235.33,26l3.89-2.86Zm-9.25-2.47-6.6-5.13-.22.16,2.63,8,2.12-1.48Z"/><path d="M171.45,168.91l1.6,2.59-3,2-1,.71,5.81,8.16,3.77,4.83-3.29,2.41-3.24-4.76-6.26-8.28-1,.71L162,179.61l-.41-.11L160,176.9l11.05-8.11Z"/><path d="M195.92,174.5,192.58,177l-1.88-1.74-1.47-1.15-3.1,2.16-2.63,2.05.53,1.58,1.2,2.5L182,184.73l-6.16-19.44,3.89-2.86ZM186.66,172l-6.6-5.13-.21.16,2.63,8.05,2.11-1.48Z"/><path d="M209.54,163.31l.22.39a14.33,14.33,0,0,1-2.74,3l-.53,0c-2.63-1.15-4.85-2.19-6.66-3.14l-2.35,1.72.23.31,3.77,4.83-3.29,2.41L195,168.07l-8.2-10.81,6-4.41a6.77,6.77,0,0,1,4.65-1.57,5.43,5.43,0,0,1,3.84,2.44,6.34,6.34,0,0,1,1.26,3.31,7.36,7.36,0,0,1-.64,3.61C204.54,161.72,207.12,162.6,209.54,163.31Zm-13.87-.61,2.46-1.66a3.53,3.53,0,0,0-.13-4.48,3,3,0,0,0-2-1.36,3.8,3.8,0,0,0-2.53.83l-1.58,1.31Z"/><path d="M213.8,140.16q3.19.56,5.79,4.08c2,2.76,2.9,5.37,2.62,7.83s-1.67,4.61-4.19,6.46c-.76.56-1.68,1.21-2.75,1.95s-2,1.37-2.81,1.88l-3.24-4.77L201,146.78l6.19-4.69A8.53,8.53,0,0,1,213.8,140.16Zm2.93,7.33c-1.4-1.9-2.72-3.05-4-3.46a4.14,4.14,0,0,0-3.86.85,33.35,33.35,0,0,0-2.64,2.13l5.73,8.11,1.83,2.34c1.21-.72,2.19-1.35,2.93-1.9Q220.58,152.74,216.73,147.49Z"/><path d="M236,140.91l.39.13,1.57,2.6-9.77,7.17-3.24-4.76-8.19-10.81L226.6,128l.39.12,1.55,2.62-3.81,2.61-2.79,2.09,2.68,3.8,2.72-1.92,2.49-1.94.37.1,1.58,2.6L229,140l-2.48,1.86,1.2,1.68,1.8,2.29,2.75-2Z"/><path d="M66.5,207.08a7,7,0,0,1-2.69-2.3,10.09,10.09,0,0,1-1.8-4.89A23.12,23.12,0,0,1,62.4,193l3.69-.21.44.39a7.57,7.57,0,0,0,1.1,5.4,5.53,5.53,0,0,0,2,1.73,5.24,5.24,0,0,0,2.6.48l.41.56a26,26,0,0,1-2.6,6.19A6.92,6.92,0,0,1,66.5,207.08Zm8.44-6.19a7,7,0,0,1-2.69-2.31,10.09,10.09,0,0,1-1.81-4.88,23.79,23.79,0,0,1,.39-6.85l3.7-.22.43.4a7.51,7.51,0,0,0,1.11,5.39,5.64,5.64,0,0,0,2,1.74,5.27,5.27,0,0,0,2.6.48l.41.56a26.05,26.05,0,0,1-2.59,6.18A6.9,6.9,0,0,1,74.94,200.89Z"/><path d="M99.13,168.35l3.18,7.15-.31.65a13.1,13.1,0,0,0-3.94.8,14,14,0,0,0-3.58,1.88q-3.35,2.44-3.4,5.71c0,2.17,1,4.76,3.23,7.75q7.14,9.74,14,4.66a17,17,0,0,0,2.94-2.8,15.86,15.86,0,0,0,2.25-3.44l.93-.1,3.92,6.6a23.17,23.17,0,0,1-6,6.44q-7,5.15-13.48,3.9T87,199q-5.49-7.47-4.63-14.37t7.89-12.07A23.59,23.59,0,0,1,99.13,168.35Z"/><path d="M148,176.78l-7.65,5.61-4-3.73-1.68-1.41-5.44,3.86-4.54,3.54.52,1.48,2.67,5.39-7.37,5.41-12.31-37,9-6.63Zm-18.87-4.13-11.26-9.21-.46.34,4.86,13.91,3.5-2.42Z"/><path d="M164.85,155.75l3.61,6-16.82,12.36-6.09-9.16L129.68,144.2l7.65-5.62,14.49,20.61,2.66,3.32,9.5-7Z"/><path d="M197.05,140.73l-7.64,5.62-3.95-3.73-1.68-1.41-5.45,3.86-4.53,3.54.52,1.47,2.67,5.39-7.37,5.41-12.32-37,9-6.64Zm-18.86-4.12-11.26-9.21-.46.34,4.86,13.91,3.5-2.43Z"/><path d="M232.83,114.46l-6.63,4.87-7-8.82-8-9.21-.46.34,5.74,20.25-5.74,4.22L193.78,114l-.51.38,5.78,9.81,6.58,10.22L199.37,139l-19-32.07,8.67-6.36,4.27,3.57,13.24,10,.46-.34L201.9,98.08l-2.1-5.38,8.53-6.26Z"/><path d="M262.49,92.67l-7.64,5.62-4-3.73-1.67-1.41L243.77,97l-4.53,3.54.51,1.48,2.67,5.38-7.36,5.41-12.32-37,9-6.64Zm-18.86-4.12-11.26-9.21-.47.34,4.87,13.91,3.5-2.43Z"/><path d="M248.46,59.39a6.88,6.88,0,0,1,2.69,2.3A10.09,10.09,0,0,1,253,66.58a23.5,23.5,0,0,1-.4,6.85l-3.69.21-.43-.39a7.57,7.57,0,0,0-1.11-5.4,5.64,5.64,0,0,0-2-1.74,5.5,5.5,0,0,0-2.6-.48l-.41-.55A26,26,0,0,1,245,58.89,6.92,6.92,0,0,1,248.46,59.39Zm8.07-5.92a7,7,0,0,1,2.69,2.3,10.19,10.19,0,0,1,1.8,4.88,23.44,23.44,0,0,1-.39,6.85l-3.69.22-.44-.4a7.51,7.51,0,0,0-1.11-5.39,5.64,5.64,0,0,0-1.95-1.74,5.48,5.48,0,0,0-2.6-.48l-.41-.56A26.05,26.05,0,0,1,253,53,6.83,6.83,0,0,1,256.53,53.47Z"/><path class="cls-4" d="M26.55,54.57s14.38,3,26.67,6.08c15.36,3.07,34.93,8.66,36.42,8.77,4.65.33,12.74.45,17.73-1.08,5.26-1.61,13.44-4.62,22.66-4.62,19,0,30.72-6.92,30.72-6.92L132.32,37.87h-9.87l-6.83-5.56-9.28,1.85-3.71-3.71-7.42,3.71-5.72-3.71-7.27,3.71-7.87-3.71-25.78,13Z"/><polygon class="cls-5" points="48.57 43.46 58.1 41.58 65.52 39.73 71.61 43.46 78.51 39.73 81.4 43.46 87.79 41.58 95.21 52.72 93.65 44.33 97.06 43.44 109.91 49.93 104.12 39.73 120.59 46.22 113.47 39.73 117.48 39.73 123.04 43.44 128.61 41.58 136.03 49.01 132.32 41.58 137.46 41.29 132.32 37.87 122.45 37.87 115.62 32.3 106.34 34.16 102.63 30.45 95.21 34.16 89.49 30.45 82.22 34.16 74.35 30.45 48.57 43.46"/><path class="cls-6" d="M290.67,196.18s-.53-5.22-7.63-5.93c-6.74-.67-9.57-1.95-11.87-4.25a19.68,19.68,0,0,1-4.08-7.27c-.53-1.59-.71-3.72-1.06-3.72s-.61.6-.89.88-.53.71-.71.71c-.4,0,0-1.24.18-2.66s.79-3.87.88-4.25a10.09,10.09,0,0,1,1.07-2.66c.18,0,.18,0,.35.71A23.64,23.64,0,0,0,269,172c.35.54,1.42,2.31,1.6,2.49s.88,1.06.7,1.24-1.06-.36-1.41-.53a3.81,3.81,0,0,0-1.24-.54c-.4,0,.43,4.84,2.17,6.94a19.28,19.28,0,0,0,6.33,4.94,16.57,16.57,0,0,0,6,1.06c1.43,0,3.9-1.41,4.43-2.65a16.81,16.81,0,0,0,.71-4.26c0-.18-.17-34.57-.17-34.57h-7.1v-2.84h7.1v-2.83a7,7,0,0,1-4.61-7.27c.17-4.43,4.25-6.56,7.09-6.6a7.17,7.17,0,0,1,2.48,13.87v2.83h7.09v2.91h-7.09v34.5s-.53,6,3.9,6.56c5,.6,7.8-.71,9.4-1.77a14.55,14.55,0,0,0,4.07-3.9,21.15,21.15,0,0,0,2-4.43c.28-1.41.54-2.49.36-2.49a7.07,7.07,0,0,0-1.42.54c-.35.17-1.24.7-1.42.53s.38-.71.89-1.42.88-1.24,1.59-2.31a12.72,12.72,0,0,0,1.42-2.66,12.59,12.59,0,0,1,.89-2.3c.18,0,.53,1.06.71,1.42a38.52,38.52,0,0,1,1.42,6c0,1.59.35,2.12,0,2.12s-.44-.61-.89-1.06c-.18-.18-.36-.53-.53-.53-.36,0-.53,1.77-.89,2.83s-2.09,5.37-3.54,7.1a12.32,12.32,0,0,1-6,4.07,27.7,27.7,0,0,1-5.85,1.07,21.73,21.73,0,0,0-4.08.88C291.91,191.85,290.67,196.18,290.67,196.18Z"/><path class="cls-7" d="M295.25,239.67v14.62a7,7,0,0,1-.48,2.52c-.48,1.52-2.58,1.5-2.58,1.5h-87s-6.74-1.75-9.63-8.07a87.79,87.79,0,0,1-3.36-8.76c-1.89-5.75-3.24-11.43-4-15.05-.52-2.42-.79-3.93-.79-3.93s-.48-3,0-3.53,3.85.51,3.85.51Z"/><path class="cls-8" d="M284,238.08l-63.45-12.31-6.8-1.32s5.47-11.51,11.24-12c5.3-.46,56.59.5,56.59.5a2.79,2.79,0,0,1,2.42,2.12,30.66,30.66,0,0,1,.13,3.79C284.14,225.4,284,238.08,284,238.08Z"/><rect class="cls-9" x="241.81" y="181.18" width="14.93" height="31.77"/><rect class="cls-9" x="262.51" y="193.78" width="11.56" height="19.16"/><rect class="cls-10" x="241.81" y="181.18" width="14.93" height="7.06"/><rect class="cls-10" x="262.51" y="193.78" width="11.56" height="5.55"/><path class="cls-11" d="M243.53,258.32H205.21s-6.74-1.75-9.63-8.07a87.79,87.79,0,0,1-3.36-8.76c8.64,1.28,23.78,4.15,36.59,9.77C235,254,239.82,256.29,243.53,258.32Z"/><path class="cls-12" d="M284.09,218.85h-5.54S233.14,216,226.4,218c-2.06.61-4.48,4.93-5.89,7.78l-6.8-1.32s5.47-11.51,11.24-12c5.3-.46,56.59.5,56.59.5a2.79,2.79,0,0,1,2.42,2.12A30.66,30.66,0,0,1,284.09,218.85Z"/><path class="cls-10" d="M295.25,239.67v7.46L188.19,226.45c-.52-2.42-.79-3.93-.79-3.93s-.48-3,0-3.53,3.85.51,3.85.51Z"/><ellipse class="cls-10" cx="201.36" cy="236.14" rx="5.3" ry="5.55"/><ellipse class="cls-12" cx="201.36" cy="236.14" rx="3.85" ry="4.03"/><ellipse class="cls-10" cx="214.84" cy="238.66" rx="4.81" ry="5.04"/><ellipse class="cls-12" cx="214.84" cy="238.66" rx="3.5" ry="3.67"/><ellipse class="cls-10" cx="228.81" cy="242.19" rx="4.81" ry="5.04"/><ellipse class="cls-12" cx="228.81" cy="242.19" rx="3.5" ry="3.67"/><ellipse class="cls-10" cx="241.81" cy="245.22" rx="4.81" ry="5.04"/><ellipse class="cls-12" cx="241.81" cy="245.22" rx="3.5" ry="3.67"/></g></g></svg>