<svg xmlns="http://www.w3.org/2000/svg" width="172" height="136" viewBox="0 0 172 136">
  <g id="galeria" transform="translate(-275 920)">
    <path id="Sustracción_3" data-name="Sustracción 3" d="M164,136H8a8.009,8.009,0,0,1-8-8V8A8.009,8.009,0,0,1,8,0H164a8.009,8.009,0,0,1,8,8V128A8.009,8.009,0,0,1,164,136ZM21,10a8.009,8.009,0,0,0-8,8V118a8.009,8.009,0,0,0,8,8H151a8.009,8.009,0,0,0,8-8V18a8.009,8.009,0,0,0-8-8Z" transform="translate(275 -920)" fill="#fff"/>
    <path id="Trazado_7" data-name="Trazado 7" d="M288.3-799.754c4.1-3.078,106.7-57.968,106.7-57.968l40.013,29.24" fill="none" stroke="#fff" stroke-linecap="round" stroke-linejoin="round" stroke-width="12"/>
    <path id="Trazado_8" data-name="Trazado 8" d="M288.3-829.782c1.978-1.484,51.429-27.94,51.429-27.94l19.286,14.094" transform="translate(-2 -0.986)" fill="none" stroke="#fff" stroke-linecap="round" stroke-linejoin="round" stroke-width="12"/>
    <circle id="Elipse_1" data-name="Elipse 1" cx="11" cy="11" r="11" transform="translate(364 -894)" fill="#fff"/>
  </g>
</svg>
