<svg xmlns="http://www.w3.org/2000/svg" width="26.528" height="27.725" viewBox="0 0 26.528 27.725">
  <g id="grupo_whatsapp" transform="translate(-36.472 -418)">
    <circle id="Elipse_2" data-name="Elipse 2" cx="12.5" cy="12.5" r="12.5" transform="translate(38 418)" fill="#fff"/>
    <path id="Polígono_1" data-name="Polígono 1" d="M4,0,8,6H0Z" transform="matrix(-0.719, -0.695, 0.695, -0.719, 42.227, 445.725)" fill="#fff"/>
    <circle id="Elipse_3" data-name="Elipse 3" cx="10.5" cy="10.5" r="10.5" transform="translate(40 420)" fill="#00bb2d"/>
    <path id="Trazado_8" data-name="Trazado 8" d="M-450.65,830.208c.659,0,.73-.076.882.07a19.427,19.427,0,0,1,1.321,2.852.7.7,0,0,1-.153.729,4.816,4.816,0,0,0-.794,1.038.689.689,0,0,0,.154.743c.141.167,1.641,1.971,1.858,2.1s1.448.91,1.859,1.127l.039.021c.156.081.615.36.806.275a4.594,4.594,0,0,0,.9-1.025.836.836,0,0,1,.41-.5c.256-.1.253-.137.513-.072a16.729,16.729,0,0,1,2.728,1.306.891.891,0,0,1,.173.541,2.823,2.823,0,0,1-.346,1.234,6.52,6.52,0,0,1-1.278,1.126,4,4,0,0,1-1.083.217,4.557,4.557,0,0,1-1.278-.108,10.554,10.554,0,0,1-1.8-.585,13.278,13.278,0,0,1-2.555-1.451c-.5-.455-1.039-.78-1.364-1.126a14.888,14.888,0,0,1-1.386-1.689,13.485,13.485,0,0,1-1.3-2.144,3.459,3.459,0,0,1-.39-1.754,4.907,4.907,0,0,1,.26-1.191,3.608,3.608,0,0,1,.606-1.018c.3-.368.287-.437.591-.573A1.807,1.807,0,0,1-450.65,830.208Z" transform="translate(497 -406)" fill="#fff"/>
  </g>
</svg>
