<svg xmlns="http://www.w3.org/2000/svg" width="32" height="36" viewBox="0 0 32 36">
  <g id="guardar" transform="translate(934 135)">
    <path id="Trazado_99" data-name="Trazado 99" d="M3,36a3,3,0,0,1-3-3V3A3,3,0,0,1,3,0H21.655L32,14.774V33a3,3,0,0,1-3,3ZM5,19V30a2,2,0,0,0,2,2H25a2,2,0,0,0,2-2V19a2,2,0,0,0-2-2H7A2,2,0,0,0,5,19ZM7,6v5a2,2,0,0,0,2,2H20a2,2,0,0,0,2-2V6a2,2,0,0,0-2-2H9A2,2,0,0,0,7,6ZM8,29a1,1,0,0,1-1-1V27a1,1,0,0,1,1-1H24a1,1,0,0,1,1,1v1a1,1,0,0,1-1,1Zm0-6a1,1,0,0,1-1-1V21a1,1,0,0,1,1-1H24a1,1,0,0,1,1,1v1a1,1,0,0,1-1,1Zm6-12a1,1,0,0,1-1-1V7a1,1,0,0,1,1-1h4a1,1,0,0,1,1,1v3a1,1,0,0,1-1,1Z" transform="translate(-934 -135)" fill="#fffefe"/>
  </g>
</svg>
