<svg xmlns="http://www.w3.org/2000/svg" width="188.941" height="171" viewBox="0 0 188.941 171">
  <path id="horario" d="M129.9,167.66A42.486,42.486,0,0,1,116.39,98.448a42.947,42.947,0,0,1,3.9-3.455q-.173.007-.348.007h-13a8,8,0,0,1-8-8V85a8,8,0,0,1,8-8h13a8,8,0,0,1,8,8v2a7.964,7.964,0,0,1-.889,3.668q1.393-.714,2.845-1.329a42.5,42.5,0,1,1,0,78.321Zm-19.5-39.7A35.506,35.506,0,1,0,145.9,92.456,35.547,35.547,0,0,0,110.4,127.962Zm-5.749,27.723h0ZM104.65,155.685Zm-96.65,0a8.01,8.01,0,0,1-8-8v-120a8.01,8.01,0,0,1,8-8H43.943V8a8,8,0,1,1,16,0V19.685h52V9a8,8,0,1,1,16,0V19.685H164a8.01,8.01,0,0,1,8,8V85.723a49.685,49.685,0,0,0-13-5.26V71H13v66.685a8.009,8.009,0,0,0,8,8H99.793a49.86,49.86,0,0,0,4.856,10v0Zm5-118V56H159V37.685a8.01,8.01,0,0,0-8-8H127.942V39a8,8,0,1,1-16,0V29.685h-52V38a8,8,0,1,1-16,0V29.685H21A8.009,8.009,0,0,0,13,37.685ZM68.942,143a8,8,0,0,1-8-8v-2a8,8,0,0,1,8-8h13a8,8,0,0,1,8,8v2a8,8,0,0,1-8,8Zm-38,0a8,8,0,0,1-8-8v-2a8,8,0,0,1,8-8h13a8,8,0,0,1,8,8v2a8,8,0,0,1-8,8Zm115.5-11.5a3,3,0,0,1-3-2.835,2.986,2.986,0,0,1-.5-1.665V108a3,3,0,0,1,6,0v17.5h27.5a3,3,0,0,1,0,6ZM68.942,119a8,8,0,0,1-8-8v-2a8,8,0,0,1,8-8h13a8,8,0,0,1,8,8v2a8,8,0,0,1-8,8Zm-38,0a8,8,0,0,1-8-8v-2a8,8,0,0,1,8-8h13a8,8,0,0,1,8,8v2a8,8,0,0,1-8,8Zm38-24a8,8,0,0,1-8-8V85a8,8,0,0,1,8-8h13a8,8,0,0,1,8,8v2a8,8,0,0,1-8,8Zm-38,0a8,8,0,0,1-8-8V85a8,8,0,0,1,8-8h13a8,8,0,0,1,8,8v2a8,8,0,0,1-8,8Z" fill="#fff"/>
</svg>
