<svg xmlns="http://www.w3.org/2000/svg" width="50" height="80" viewBox="0 0 158 158"><g transform="translate(-1288 -2908)"><circle cx="79" cy="79" r="79" transform="translate(1288 2908)" fill="#fff" opacity="0.66"/><g transform="translate(26 -3)"><path d="M1386,2879.44l12.7,15.826s-8.35,14.805-6.748,23.184,4.091,32.06,5.33,38.33,1.131,12.888-1.913,18.656-11.21,12.33-18.209,15.028a150.092,150.092,0,0,1-16.982,4.963l-6.872,8.329-7.913-6.872s-12.078-1.041-20.2-3.956-16.034-4.165-20.615-12.077-6.247-16.242-4.581-24.155,7.672-26.417,8.538-31.585,2.291-13.393,0-21.306a40.443,40.443,0,0,0-7.08-13.535l16.659-16.242a115.56,115.56,0,0,0,10.828,6.664c5.831,3.123,20.751,6.965,27.07,7.08s13.119-.833,17.908-2.915S1386,2879.44,1386,2879.44Z" transform="translate(-8 50)" fill="#ce0000"/><path d="M1396.75,2895.031l-93.234,45.922s-.378.546-1.98,6.091-3.364,9.442-3.721,14.172-.484,9.226.357,12.142,2.057,6.26,2.057,6.26l93.294-46.834s-.7-2.882-1.508-8.3c-.371-2.474-.422-3.286-.608-4.751a38.052,38.052,0,0,1,.608-6.712c.82-6.385,5.768-16.743,5.768-16.743Z" transform="translate(-7 49)" fill="#fff"/><path d="M1388.536,2982.092l-93.542,47.148s2.743,5.634,5.456,7.762a45.145,45.145,0,0,0,11.31,5.678c3.582,1.236,12.351,3.966,17.094,4.682s9.83,1.306,9.83,1.306l8.294,7.318,6.875-8.871s7.992-1.757,12.375-3.1,8.331-2.635,11.923-5.074a40.268,40.268,0,0,0,7.452-6.165c2.75-2.75,5.292-5.168,6.351-10.273a52.83,52.83,0,0,0,0-16.633c-.689-3.571-1.819-12.2-2.04-13.75S1388.536,2982.092,1388.536,2982.092Z" transform="translate(-1.917 -0.694)" fill="#000063"/></g></g></svg>