<svg xmlns="http://www.w3.org/2000/svg" width="41.755" height="52.097" viewBox="0 0 41.755 52.097">
  <g id="logo" transform="translate(-1293.218 -2906.4)">
    <g id="Grupo_18" data-name="Grupo 18" transform="translate(1297.169 2913.4)">
      <path id="Trazado_96" data-name="Trazado 96" d="M1335.308,2876.192l5.5,6.092s-3.691,6.161-3.027,9.512,1.7,12.825,2.212,15.333a10.831,10.831,0,0,1-.794,7.463c-1.263,2.308-4.651,4.932-7.555,6.011a64.141,64.141,0,0,1-7.046,1.985l-2.851,3.332-3.283-2.749a42.212,42.212,0,0,1-8.38-1.583c-3.37-1.166-6.653-1.666-8.553-4.831a13.171,13.171,0,0,1-1.9-9.662c.691-3.165,2.964-9.993,3.529-12.569s1.358-5.5.439-9.121a16.109,16.109,0,0,0-2.8-5.881l6.352-5.5a48.171,48.171,0,0,0,4.493,2.666,36.991,36.991,0,0,0,11.231,2.832,19.641,19.641,0,0,0,7.43-1.166C1332.285,2877.524,1335.308,2876.192,1335.308,2876.192Z" transform="translate(-1303.023 -2881.026)" fill="#eb001b"/>
      <path id="Trazado_82" data-name="Trazado 82" d="M1338.308,2894.95l-38.291,19.118a16.212,16.212,0,0,0-.821,2.525c-.664,2.3-1.395,3.914-1.543,5.875a12.988,12.988,0,0,0,.342,4.607,5.439,5.439,0,0,0,1.482,2.729l37.853-19.123s-.289-1.195-.625-3.439c-.154-1.025-.175-1.362-.252-1.969a15.776,15.776,0,0,1,.252-2.783c.34-2.647,2.639-6.418,2.639-6.418Z" transform="translate(-1301.539 -2894.819)" fill="#e0e0e0"/>
      <path id="Trazado_83" data-name="Trazado 83" d="M1333.429,2982.1l-38.436,19.534a11.727,11.727,0,0,0,2.262,3.218,19.955,19.955,0,0,0,4.654,2.906,52.9,52.9,0,0,0,7.038,1.93c1.966.3,4.147.418,4.147.418l3.606,2.819,3.181-3.237s2.97-.577,4.787-1.136a17.717,17.717,0,0,0,4.93-2.127,18.055,18.055,0,0,0,3.48-2.562,5.951,5.951,0,0,0,2.111-3.915c.439-2.116-.006-5.62-.3-7.444s-.58-5.563-.672-6.207S1333.429,2982.1,1333.429,2982.1Z" transform="translate(-1297.942 -2967.831)" fill="#121032"/>
    </g>
  </g>
</svg>
