<svg xmlns="http://www.w3.org/2000/svg" width="58" height="61" viewBox="0 0 58 61">
  <g id="calama" transform="translate(-1289 -2909)">
    <g id="Grupo_18" data-name="Grupo 18" transform="translate(1297.169 2913.4)">
      <rect id="Rectángulo_297" data-name="Rectángulo 297" width="58" height="61" transform="translate(-8.169 -4.4)" fill="#cc2030"/>
      <path id="Trazado_81" data-name="Trazado 81" d="M1338.82,2876.4l5.785,6.948s-3.8,6.5-3.074,10.18,1.863,14.077,2.428,16.831a11.889,11.889,0,0,1-.871,8.192c-1.387,2.533-5.105,5.414-8.293,6.6a70.4,70.4,0,0,1-7.734,2.179l-3.129,3.657-3.6-3.017a46.344,46.344,0,0,1-9.2-1.737c-3.7-1.28-7.3-1.829-9.389-5.3a14.458,14.458,0,0,1-2.086-10.606c.759-3.474,3.494-11.6,3.888-13.869s1.043-5.881,0-9.355a17.589,17.589,0,0,0-3.224-5.943l7.587-7.132a52.916,52.916,0,0,0,4.932,2.926,40.607,40.607,0,0,0,12.329,3.109,21.563,21.563,0,0,0,8.156-1.28C1335.5,2877.866,1338.82,2876.4,1338.82,2876.4Z" transform="translate(-1301.036 -2876.561)" fill="#161616"/>
      <path id="Trazado_96" data-name="Trazado 96" d="M1335.308,2876.192l5.5,6.092s-3.691,6.161-3.027,9.512,1.7,12.825,2.212,15.333a10.831,10.831,0,0,1-.794,7.463c-1.263,2.308-4.651,4.932-7.555,6.011a64.141,64.141,0,0,1-7.046,1.985l-2.851,3.332-3.283-2.749a42.212,42.212,0,0,1-8.38-1.583c-3.37-1.166-6.653-1.666-8.553-4.831a13.171,13.171,0,0,1-1.9-9.662c.691-3.165,2.964-9.993,3.529-12.569s1.358-5.5.439-9.121a16.109,16.109,0,0,0-2.8-5.881l6.352-5.5a48.171,48.171,0,0,0,4.493,2.666,36.991,36.991,0,0,0,11.231,2.832,19.641,19.641,0,0,0,7.43-1.166C1332.285,2877.524,1335.308,2876.192,1335.308,2876.192Z" transform="translate(-1299.023 -2874.026)" fill="#ce0000"/>
      <path id="Trazado_82" data-name="Trazado 82" d="M1338.322,2894.983l-38.305,19.085a16.212,16.212,0,0,0-.821,2.525c-.664,2.3-1.395,3.914-1.543,5.875a12.988,12.988,0,0,0,.342,4.607,5.439,5.439,0,0,0,1.482,2.729l37.853-19.123s-.289-1.195-.625-3.439c-.154-1.025-.175-1.362-.252-1.969a15.776,15.776,0,0,1,.252-2.783c.34-2.647,2.639-6.418,2.639-6.418Z" transform="translate(-1297.539 -2887.819)" fill="#fff"/>
      <path id="Trazado_83" data-name="Trazado 83" d="M1333.429,2982.1l-38.436,19.534a11.727,11.727,0,0,0,2.262,3.218,19.955,19.955,0,0,0,4.654,2.906,52.9,52.9,0,0,0,7.038,1.93c1.966.3,4.147.418,4.147.418l3.606,2.819,3.181-3.237s2.97-.577,4.787-1.136a17.717,17.717,0,0,0,4.93-2.127,18.055,18.055,0,0,0,3.48-2.562,5.951,5.951,0,0,0,2.111-3.915c.439-2.116-.006-5.62-.3-7.444s-.58-5.563-.672-6.207S1333.429,2982.1,1333.429,2982.1Z" transform="translate(-1293.942 -2960.831)" fill="#000063"/>
    </g>
  </g>
</svg>
