<svg xmlns="http://www.w3.org/2000/svg" width="42" height="44" viewBox="0 0 42 44">
  <g id="logout" transform="translate(1589 -1524)">
    <path id="Trazado_109" data-name="Trazado 109" d="M21,51A21,21,0,0,1,6.151,15.151a21.278,21.278,0,0,1,8.828-5.279c.135-.045,2.2.416,1.795,2.221s-1.216,1.8-1.72,1.979A16.817,16.817,0,0,0,4,30a17,17,0,0,0,34,0A17.213,17.213,0,0,0,27.754,14.4a2.394,2.394,0,0,1-1.311-2.307c.161-1.565,1.237-2.016,1.866-1.791A21.038,21.038,0,0,1,42,30,21,21,0,0,1,21,51Z" transform="translate(-1589 1517)" fill="#cc2030"/>
    <rect id="Rectángulo_311" data-name="Rectángulo 311" width="5" height="21" rx="2.5" transform="translate(-1570 1524)" fill="#cc2030"/>
  </g>
</svg>
