<svg xmlns="http://www.w3.org/2000/svg" width="38" height="38" viewBox="0 0 38 38">
  <g id="menu-user" transform="translate(1768 792.5)">
    <rect id="Rectangle_Copy_2" data-name="Rectangle Copy 2" width="38" height="38" rx="10" transform="translate(-1768 -792.5)" fill="#7165e3"/>
    <g id="credit-card_3_" data-name="credit-card (3)" transform="translate(-1759 -780.5)">
      <path id="Shape" d="M2.084,8A2.023,2.023,0,0,1,0,6V.4A.386.386,0,0,1,.417,0H19.583A.386.386,0,0,1,20,.4V6a2.023,2.023,0,0,1-2.083,2Z" transform="translate(0 5)" fill="#fff"/>
      <path id="Path" d="M17.917,0H2.083A2.3,2.3,0,0,0,0,2.5v1c0,.3.167.5.417.5H19.583c.25,0,.417-.2.417-.5v-1A2.3,2.3,0,0,0,17.917,0Z" fill="#fff"/>
    </g>
  </g>
</svg>
