<svg xmlns="http://www.w3.org/2000/svg" width="77" height="53.921" viewBox="0 0 77 53.921">
  <g id="miscursos" transform="translate(1594 -1351)">
    <path id="Unión_1" data-name="Unión 1" d="M54,54.921a4.9,4.9,0,0,1,1.267-3.2A9.582,9.582,0,0,1,58.649,49.3,9,9,0,0,0,71.636,49C75,50.292,77,52.506,77,54.921c0,3.86-5.159,7-11.5,7S54,58.781,54,54.921Zm-27,0a4.9,4.9,0,0,1,1.267-3.2A9.582,9.582,0,0,1,31.649,49.3,9,9,0,0,0,44.636,49C48,50.292,50,52.506,50,54.921c0,3.86-5.159,7-11.5,7S27,58.781,27,54.921Zm-27,0a4.9,4.9,0,0,1,1.267-3.2A9.582,9.582,0,0,1,4.649,49.3,9,9,0,0,0,17.636,49C21,50.292,23,52.506,23,54.921c0,3.86-5.159,7-11.5,7S0,58.781,0,54.921ZM33,44a5,5,0,1,1,5,5A5,5,0,0,1,33,44Zm27-1a5,5,0,1,1,5,5A5,5,0,0,1,60,43ZM6,43a5,5,0,1,1,5,5A5,5,0,0,1,6,43Zm23.054,2H19.777A9.007,9.007,0,0,0,9,34.223V13a5.006,5.006,0,0,1,5-5H62a5.005,5.005,0,0,1,5,5V34.223A9.006,9.006,0,0,0,56.223,45H46.945A9.168,9.168,0,0,0,47,44a9,9,0,0,0-18,0,9.268,9.268,0,0,0,.055,1h0ZM15,25a3,3,0,0,0,3,3H59a3,3,0,1,0,0-6H18A3,3,0,0,0,15,25Zm8-9a3,3,0,0,0,3,3H50a3,3,0,1,0,0-6H26A3,3,0,0,0,23,16Z" transform="translate(-1594 1343)" fill="#fff"/>
  </g>
</svg>
