<svg xmlns="http://www.w3.org/2000/svg" width="81" height="52" viewBox="0 0 81 52">
  <g id="misestudiantes" transform="translate(1687 -1356)">
    <path id="Sustracción_30" data-name="Sustracción 30" d="M11,22A11,11,0,0,1,3.222,3.222,11,11,0,1,1,18.778,18.778,10.928,10.928,0,0,1,11,22ZM11,2a9,9,0,1,0,9,9A9.01,9.01,0,0,0,11,2Z" transform="translate(-1679 1356)" fill="#fff"/>
    <path id="Sustracción_29" data-name="Sustracción 29" d="M11,22A11,11,0,0,1,3.222,3.222,11,11,0,1,1,18.778,18.778,10.928,10.928,0,0,1,11,22ZM11,2a9,9,0,1,0,9,9A9.01,9.01,0,0,0,11,2Z" transform="translate(-1657 1361)" fill="#fff"/>
    <path id="Sustracción_28" data-name="Sustracción 28" d="M11,22A11,11,0,0,1,3.222,3.222,11,11,0,1,1,18.778,18.778,10.928,10.928,0,0,1,11,22ZM11,2a9,9,0,1,0,9,9A9.01,9.01,0,0,0,11,2Z" transform="translate(-1635 1356)" fill="#fff"/>
    <path id="Trazado_100" data-name="Trazado 100" d="M17,50A19.329,19.329,0,0,1,4.979,46.046,12.2,12.2,0,0,1,0,36.5a11.527,11.527,0,0,1,2.662-7.256,16.38,16.38,0,0,1,6.913-4.891A14,14,0,0,0,26.928,25.54a15.132,15.132,0,0,1,5.142,4.707A11.362,11.362,0,0,1,34,36.5a12.2,12.2,0,0,1-4.979,9.546A19.329,19.329,0,0,1,17,50Z" transform="translate(-1686 1354)" fill="none" stroke="#fff" stroke-width="2"/>
    <path id="Trazado_101" data-name="Trazado 101" d="M17,51A19.329,19.329,0,0,1,4.979,47.046,12.2,12.2,0,0,1,0,37.5c0-5.026,3.481-9.606,9.085-11.951a14.008,14.008,0,0,0,15.83,0C30.519,27.895,34,32.474,34,37.5a12.2,12.2,0,0,1-4.979,9.546A19.329,19.329,0,0,1,17,51Z" transform="translate(-1641 1354)" fill="none" stroke="#fff" stroke-width="2"/>
    <path id="Trazado_102" data-name="Trazado 102" d="M17,49A19.329,19.329,0,0,1,4.979,45.046,12.2,12.2,0,0,1,0,35.5C0,31,2.809,26.813,7.513,24.3a14,14,0,0,0,18.974,0C31.192,26.813,34,31,34,35.5a12.2,12.2,0,0,1-4.979,9.546A19.329,19.329,0,0,1,17,49Z" transform="translate(-1663 1358)" fill="none" stroke="#fff" stroke-width="2"/>
  </g>
</svg>
