<svg xmlns="http://www.w3.org/2000/svg" width="62" height="62" viewBox="0 0 62 62">
  <g id="pdf-ico" transform="translate(2505 162.5)">
    <g id="youtube-ico" transform="translate(0 71)">
      <rect id="Rectangle_Copy_9" data-name="Rectangle Copy 9" width="62" height="62" rx="19" transform="translate(-2505 -233.5)" fill="#95313a"/>
    </g>
    <path id="Trazado_9" data-name="Trazado 9" d="M7.6-16.075a5.241,5.241,0,0,1,3.738,1.238,4.661,4.661,0,0,1,1.313,3.563A5.608,5.608,0,0,1,10.988-7,6.365,6.365,0,0,1,6.425-5.425H4.65v.375L4.775,0H2.15l.175-4.825L2.15-16.05Zm-.425,8.65A3.372,3.372,0,0,0,9.263-8.613a3.854,3.854,0,0,0,.712-2.438,2.938,2.938,0,0,0-.762-2.225A3.415,3.415,0,0,0,6.9-14.05l-2.125.075-.1,6.5ZM21.6-16.15a6.958,6.958,0,0,1,5.3,1.95,7.827,7.827,0,0,1,1.85,5.6q0,4.225-2.025,6.488A7.411,7.411,0,0,1,20.9.15q-1.075,0-2.575-.038T15.525,0H15.5l.175-4.825L15.5-16.05h.025ZM21.35-1.9a4.222,4.222,0,0,0,3.512-1.525,7.308,7.308,0,0,0,1.212-4.6,7.3,7.3,0,0,0-1.162-4.563A4.215,4.215,0,0,0,21.4-14.05q-1.375,0-3.275.1L18-5.05l.075,2.975q.9.075,1.8.125T21.35-1.9ZM34.325-13.925l-.075,5.05,2.525.05,2.65-.075.175.225-.2,1.95L36.55-6.8l-2.325.025L34.2-5.05,34.325,0H31.7l.175-4.825L31.7-16.05h8.975l.175.225-.2,2.025-3.75-.15Z" transform="translate(-2494 -124)" fill="#fff"/>
  </g>
</svg>
