<svg xmlns="http://www.w3.org/2000/svg" width="77" height="52" viewBox="0 0 77 52">
  <g id="perfil" transform="translate(1608 -1415)">
    <path id="Trazado_104" data-name="Trazado 104" d="M3,52a3,3,0,0,1-3-3V3A3,3,0,0,1,3,0H74a3,3,0,0,1,3,3V49a3,3,0,0,1-3,3ZM6,8V44a2,2,0,0,0,2,2H69a2,2,0,0,0,2-2V8a2,2,0,0,0-2-2H8A2,2,0,0,0,6,8Zm6,22.92a4.9,4.9,0,0,1,1.267-3.2A9.581,9.581,0,0,1,16.649,25.3,9,9,0,0,0,29.637,25C33,26.293,35,28.506,35,30.92c0,3.86-5.159,7-11.5,7S12,34.781,12,30.92ZM43,37a2,2,0,0,1-2-2V33a2,2,0,0,1,2-2H63a2,2,0,0,1,2,2v2a2,2,0,0,1-2,2Zm0-8a2,2,0,0,1-2-2V25a2,2,0,0,1,2-2H63a2,2,0,0,1,2,2v2a2,2,0,0,1-2,2ZM18,19a5,5,0,1,1,5,5A5,5,0,0,1,18,19Zm25,2a2,2,0,0,1-2-2V17a2,2,0,0,1,2-2H63a2,2,0,0,1,2,2v2a2,2,0,0,1-2,2Z" transform="translate(-1608 1415)" fill="#fff"/>
  </g>
</svg>
