<svg xmlns="http://www.w3.org/2000/svg" width="22.031" height="25.042" viewBox="0 0 22.031 25.042">
  <g id="play" transform="translate(24 -1.479) rotate(90)" fill="none">
    <path d="M12.272,2.962a2,2,0,0,1,3.455,0L26.245,20.992A2,2,0,0,1,24.518,24H3.482a2,2,0,0,1-1.728-3.008Z" stroke="none"/>
    <path d="M 14 3.969268798828125 L 3.482070922851563 21.99999809265137 L 24.51791954040527 21.99999809265137 L 14 3.969268798828125 M 14 1.969270706176758 C 14.6708402633667 1.969270706176758 15.34167957305908 2.300024032592773 15.72756004333496 2.961528778076172 L 26.24547958374023 20.99225807189941 C 27.02325057983398 22.32556915283203 26.06151008605957 23.99999809265137 24.51791954040527 23.99999809265137 L 3.482070922851563 23.99999809265137 C 1.93848991394043 23.99999809265137 0.9767494201660156 22.32556915283203 1.754520416259766 20.99225807189941 L 12.27243995666504 2.961528778076172 C 12.65832042694092 2.300024032592773 13.3291597366333 1.969270706176758 14 1.969270706176758 Z" stroke="none" fill="#fff"/>
  </g>
</svg>
