<svg xmlns="http://www.w3.org/2000/svg" width="75" height="52.549" viewBox="0 0 75 52.549">
  <g id="ranking" transform="translate(1679 -1468.451)">
    <path id="Trazado_103" data-name="Trazado 103" d="M2,54a2,2,0,0,1-2-2V49a2,2,0,0,1,2-2H73a2,2,0,0,1,2,2v3a2,2,0,0,1-2,2ZM53,44a2,2,0,0,1-2-2V29a2,2,0,0,1,2-2H67a2,2,0,0,1,2,2V42a2,2,0,0,1-2,2ZM31,44a2,2,0,0,1-2-2V21a2,2,0,0,1,2-2H45a2,2,0,0,1,2,2V42a2,2,0,0,1-2,2ZM9,44a2,2,0,0,1-2-2V25a2,2,0,0,1,2-2H23a2,2,0,0,1,2,2V42a2,2,0,0,1-2,2ZM41.381,15.917,38.5,14.249a1,1,0,0,0-1,0l-2.88,1.668a1,1,0,0,1-1.485-1.045l.645-3.544a1,1,0,0,0-.282-.892L30.956,7.929a1,1,0,0,1,.571-1.7L34.9,5.78a1,1,0,0,0,.782-.583l1.409-3.154a1,1,0,0,1,1.826,0L40.322,5.2a1,1,0,0,0,.782.583l3.37.446a1,1,0,0,1,.571,1.7L42.5,10.436a1,1,0,0,0-.282.892l.645,3.544a1,1,0,0,1-1.485,1.045Z" transform="translate(-1679 1467)" fill="#fff"/>
  </g>
</svg>
