<svg xmlns="http://www.w3.org/2000/svg" width="21" height="22.113" viewBox="0 0 21 22.113">
  <g id="respuestas" transform="translate(2339.735 33.887)">
    <path id="Trazado_14" data-name="Trazado 14" d="M5,0H16a5,5,0,0,1,5,5v7a5,5,0,0,1-5,5H5a5,5,0,0,1-5-5V5A5,5,0,0,1,5,0Z" transform="translate(-2339.735 -33.887)" fill="#7165e3"/>
    <path id="Trazado_13" data-name="Trazado 13" d="M4,0H15a4,4,0,0,1,4,4v7a4,4,0,0,1-4,4H4a4,4,0,0,1-4-4V4A4,4,0,0,1,4,0Z" transform="translate(-2338.735 -32.887)" fill="#fff"/>
    <path id="Trazado_11" data-name="Trazado 11" d="M3.994,0,7.987,6.113H0Z" transform="translate(-2321.247 -11.775) rotate(180)" fill="#7165e3"/>
    <path id="Trazado_12" data-name="Trazado 12" d="M3.3,0,6.6,5.294H0Z" transform="translate(-2321.942 -13.476) rotate(180)" fill="#fff"/>
  </g>
</svg>
