<svg xmlns="http://www.w3.org/2000/svg" width="62" height="62" viewBox="0 0 62 62">
  <g id="ver" transform="translate(2416 275.5)">
    <g id="user" transform="translate(89 -42)">
      <rect id="Rectangle_Copy_9" data-name="Rectangle Copy 9" width="62" height="62" rx="25" transform="translate(-2505 -233.5)" fill="#11051f"/>
    </g>
    <path id="Trazado_10" data-name="Trazado 10" d="M8.55,0H5.5L.3-16.05H2.95l.375,1.825L7-2.5h.175L11.25-14.1l.4-1.95h2.575ZM23.475-5.65l-7.025.025a4.236,4.236,0,0,0,.925,2.887,3.275,3.275,0,0,0,2.55.988A6.324,6.324,0,0,0,23.3-2.775l.25.15-.375,2.05a8.813,8.813,0,0,1-3.55.8,5.217,5.217,0,0,1-4.038-1.588A6.155,6.155,0,0,1,14.125-5.7a6.368,6.368,0,0,1,1.45-4.4A5,5,0,0,1,19.5-11.725a4.352,4.352,0,0,1,3.237,1.15,4.424,4.424,0,0,1,1.138,3.25A9.1,9.1,0,0,1,23.75-5.95Zm-1.9-1.975A2.584,2.584,0,0,0,21.038-9.4a1.989,1.989,0,0,0-1.562-.6,2.6,2.6,0,0,0-1.9.737,3.814,3.814,0,0,0-1,2.088l4.95-.1Zm10.8-3.925A4.469,4.469,0,0,1,33-11.5v2.425L32.725-9a3.106,3.106,0,0,0-.925-.125,2.2,2.2,0,0,0-1.45.575,5.739,5.739,0,0,0-1.3,1.85l-.025,1.65L29.175,0h-2.55L26.8-4.825l-.15-6.525,2.425-.225-.025,2.3h.175a4.853,4.853,0,0,1,1.5-1.738A3,3,0,0,1,32.375-11.55Z" transform="translate(-2401 -237)" fill="#fff"/>
  </g>
</svg>
