<svg xmlns="http://www.w3.org/2000/svg" width="22" height="20" viewBox="0 0 22 20">
  <g id="videoYoutube" transform="translate(2381 89)">
    <rect id="Rectángulo_2" data-name="Rectángulo 2" width="22" height="20" rx="5" transform="translate(-2381 -89)" fill="#cc2030"/>
    <g id="play" transform="translate(-2361.195 -86.705) rotate(90)" fill="none">
      <path d="M6.524,2.5a.878.878,0,0,1,1.615,0l4.916,9.687a1.083,1.083,0,0,1-.808,1.616H2.415a1.083,1.083,0,0,1-.808-1.616Z" stroke="none"/>
      <path d="M 7.331699848175049 5.330510139465332 L 4.045558929443359 11.80551147460938 L 10.61783981323242 11.80551147460938 L 7.331699848175049 5.330510139465332 M 7.331699848175049 1.969270706176758 C 7.645269870758057 1.969270706176758 7.958839893341064 2.146970748901367 8.139209747314453 2.502370834350586 L 13.05558013916016 12.18957138061523 C 13.41913032531738 12.90591049194336 12.96959018707275 13.80551147460938 12.24806976318359 13.80551147460938 L 2.415329933166504 13.80551147460938 C 1.693809509277344 13.80551147460938 1.244270324707031 12.90591049194336 1.607819557189941 12.18957138061523 L 6.524189949035645 2.502370834350586 C 6.704559803009033 2.146970748901367 7.018129825592041 1.969270706176758 7.331699848175049 1.969270706176758 Z" stroke="none" fill="#fff"/>
    </g>
  </g>
</svg>
