<svg xmlns="http://www.w3.org/2000/svg" width="62" height="62" viewBox="0 0 62 62">
  <g id="youtube-ico" transform="translate(2505 162.5)">
    <g id="youtube-ico-2" data-name="youtube-ico" transform="translate(0 71)">
      <rect id="Rectangle_Copy_9" data-name="Rectangle Copy 9" width="62" height="62" rx="19" transform="translate(-2505 -233.5)" fill="#cc2030"/>
    </g>
    <path id="Trazado_8" data-name="Trazado 8" d="M5.562-3.312,5.634,0H3.78l.09-3.312-.018-.7L.2-11.556h1.98l.234.72L4.7-5.994h.144L7.38-10.8l.288-.756H9.594L5.58-4.1ZM13.1-8.46A3.371,3.371,0,0,1,15.8-7.371a4.566,4.566,0,0,1,.945,3.087A4.85,4.85,0,0,1,15.732-.99,3.6,3.6,0,0,1,12.87.162,3.371,3.371,0,0,1,10.179-.927a4.566,4.566,0,0,1-.945-3.087,4.85,4.85,0,0,1,1.008-3.294A3.6,3.6,0,0,1,13.1-8.46ZM13-7.182q-2.052,0-2.052,2.772a4.852,4.852,0,0,0,.5,2.5A1.7,1.7,0,0,0,13-1.1a1.776,1.776,0,0,0,1.53-.684,3.522,3.522,0,0,0,.5-2.088,4.852,4.852,0,0,0-.5-2.5A1.68,1.68,0,0,0,13-7.182Zm13.356,5.9L26.19-.27a2.885,2.885,0,0,1-1.17.4,1.594,1.594,0,0,1-.855-.387,1.875,1.875,0,0,1-.477-.891h-.126A5.464,5.464,0,0,1,21.4.108a3.05,3.05,0,0,1-2.07-.63,2.215,2.215,0,0,1-.7-1.8l.036-2.25-.072-3.6,1.818-.162-.09,5.508a1.516,1.516,0,0,0,.3,1.044,1.16,1.16,0,0,0,.945.378,3,3,0,0,0,1.962-.9V-8.172l1.746-.162-.126,6.408a.747.747,0,0,0,.108.459.459.459,0,0,0,.378.135A2.829,2.829,0,0,0,26.19-1.4ZM4.212,18.614a2.888,2.888,0,0,0,1.26-.324l.18.126-.18,1.152a5.417,5.417,0,0,1-1.836.54,2.664,2.664,0,0,1-1.62-.747,2.4,2.4,0,0,1-.5-1.647l.072-1.3-.018-3.51H.432L.36,12.8l.09-1.062h1.1V10.424l1.62-.612.162.144-.036,1.782H5.6l.072.126-.09,1.044H3.258l-.09,4.518a1.31,1.31,0,0,0,.225.927A1.081,1.081,0,0,0,4.212,18.614Zm10.6.108-.162,1.008a2.885,2.885,0,0,1-1.17.4,1.594,1.594,0,0,1-.855-.387,1.875,1.875,0,0,1-.477-.891h-.126a5.464,5.464,0,0,1-2.16,1.26,3.05,3.05,0,0,1-2.07-.63,2.215,2.215,0,0,1-.7-1.8l.036-2.25-.072-3.6,1.818-.162-.09,5.508a1.516,1.516,0,0,0,.3,1.044,1.16,1.16,0,0,0,.945.378,3,3,0,0,0,1.962-.9V11.828l1.746-.162-.126,6.408a.747.747,0,0,0,.108.459.459.459,0,0,0,.378.135,2.829,2.829,0,0,0,.558-.072Zm5.76-7.11a2.875,2.875,0,0,1,2.394,1.044A4.615,4.615,0,0,1,23.8,15.59a4.91,4.91,0,0,1-1.062,3.384,3.755,3.755,0,0,1-2.952,1.188,4.434,4.434,0,0,1-1.836-.414l-1.152.468-.27-.18.126-3.492-.108-9.036,1.836-.144-.072,5.49h.108a6.715,6.715,0,0,1,1.044-.765A5.626,5.626,0,0,1,20.574,11.612Zm-.72,7.29a1.977,1.977,0,0,0,1.638-.747,3.59,3.59,0,0,0,.594-2.259,3.852,3.852,0,0,0-.468-2.079,1.509,1.509,0,0,0-1.35-.729,2.856,2.856,0,0,0-1.98,1.08l-.036,2.16.054,2.088A3.02,3.02,0,0,0,19.854,18.9Zm12.024-2.97-5.058.018a3.05,3.05,0,0,0,.666,2.079,2.358,2.358,0,0,0,1.836.711A4.553,4.553,0,0,0,31.752,18l.18.108-.27,1.476a6.345,6.345,0,0,1-2.556.576A3.756,3.756,0,0,1,26.2,19.019,4.431,4.431,0,0,1,25.146,15.9a4.585,4.585,0,0,1,1.044-3.168,3.6,3.6,0,0,1,2.826-1.17,3.133,3.133,0,0,1,2.331.828,3.185,3.185,0,0,1,.819,2.34,6.553,6.553,0,0,1-.09.99ZM30.51,14.51a1.86,1.86,0,0,0-.387-1.278A1.432,1.432,0,0,0,29,12.8a1.871,1.871,0,0,0-1.368.531,2.746,2.746,0,0,0-.72,1.5l3.564-.072Z" transform="translate(-2490 -139)" fill="#fff"/>
  </g>
</svg>
